<svg width="18" height="18" viewBox="0 0 18 18" fill="none" xmlns="http://www.w3.org/2000/svg">
<rect width="18" height="18" rx="4" fill="#F87171"/>
<path d="M5.82843 5.8288C5.9222 5.73503 6.04937 5.68235 6.18198 5.68235C6.31459 5.68235 6.44177 5.73503 6.53553 5.8288L8.65685 7.95012L10.7782 5.8288C10.8719 5.73503 10.9991 5.68235 11.1317 5.68235C11.2643 5.68235 11.3915 5.73503 11.4853 5.8288C11.579 5.92257 11.6317 6.04974 11.6317 6.18235C11.6317 6.31496 11.579 6.44214 11.4853 6.53591L9.36396 8.65723L11.4853 10.7785C11.579 10.8723 11.6317 10.9995 11.6317 11.1321C11.6317 11.2647 11.579 11.3919 11.4853 11.4857C11.3915 11.5794 11.2643 11.6321 11.1317 11.6321C10.9991 11.6321 10.8719 11.5794 10.7782 11.4857L8.65685 9.36433L6.53553 11.4857C6.44177 11.5794 6.31459 11.6321 6.18198 11.6321C6.04937 11.6321 5.9222 11.5794 5.82843 11.4857C5.73466 11.3919 5.68198 11.2647 5.68198 11.1321C5.68198 10.9995 5.73466 10.8723 5.82843 10.7785L7.94975 8.65723L5.82843 6.53591C5.73466 6.44214 5.68198 6.31496 5.68198 6.18235C5.68198 6.04974 5.73466 5.92257 5.82843 5.8288Z" fill="white"/>
</svg>
