<svg width="429" height="46" viewBox="0 0 429 46" fill="none" xmlns="http://www.w3.org/2000/svg">
<path fill-rule="evenodd" clip-rule="evenodd" d="M22.233 0.00351981C22.1797 0.00635201 21.9852 0.0158177 21.8007 0.0245527C10.574 0.556454 1.28979 9.34957 0.128476 20.5504C-1.41599 35.4465 11.1852 47.7222 26.049 45.8013C35.6257 44.5637 43.5595 37.1076 45.4629 27.5563C48.213 13.7557 38.2163 0.837988 24.1559 0.0234942C23.8903 0.00811089 22.4317 -0.00704874 22.233 0.00351981ZM24.3273 1.32733C28.6332 1.63276 32.4832 3.04637 35.8707 5.56586C46.5353 13.4977 47.6256 29.1264 38.1655 38.4608C28.4583 48.0389 12.4977 46.3929 4.91666 35.0318C1.72394 30.2472 0.538368 24.1131 1.73737 18.5823C1.75421 18.5047 1.77391 18.4109 1.78114 18.3741C2.62544 14.0705 5.26655 9.62456 8.79498 6.56723C11.3881 4.32032 14.5574 2.68109 17.8133 1.90279C17.9527 1.86946 18.0801 1.83892 18.0965 1.83489C19.1902 1.56661 20.7363 1.36065 22.1063 1.30077C22.4327 1.2865 24.0192 1.30548 24.3273 1.32733ZM23.1161 4.99711L23.1199 6.9782L23.4255 6.99561C32.2091 7.49612 39.3927 14.5121 40.1123 23.2931C40.9378 33.3664 33.5765 42.0357 23.8391 42.4577L23.6193 42.4673V42.7655V43.0637L24.0851 43.054C34.2523 42.8437 42.3942 34.9217 43.1093 24.5437C43.8994 13.0769 35.0093 3.30139 23.541 3.02631L23.1124 3.01602L23.1161 4.99711ZM21.0735 4.7577C18.8808 4.8998 16.843 5.7658 15.2196 7.24547C13.347 8.95222 12.2182 11.3251 12.0853 13.8336L12.0744 14.0409L11.8585 14.174C9.1277 15.8577 6.94244 18.4171 5.71146 21.3732C5.37932 22.1709 5.0649 23.1559 4.90355 23.9043C4.8903 23.9658 4.86645 24.0765 4.85056 24.1502C4.74094 24.6591 4.64541 25.3017 4.5924 25.8868C4.54261 26.4365 4.53315 26.6616 4.53315 27.2955C4.53315 27.9293 4.54261 28.1544 4.5924 28.7041C4.6307 29.1269 4.7073 29.7053 4.76314 29.9935C4.84128 30.3967 4.86964 30.5389 4.88202 30.5898C4.89001 30.6226 4.91028 30.7098 4.92706 30.7835C5.89754 35.0495 8.70561 38.7164 12.6643 40.887C12.7875 40.9546 13.3538 41.2379 13.483 41.2967C15.4765 42.2032 17.5198 42.6726 19.6095 42.7042L19.9002 42.7086V42.485V42.2614L19.6915 42.2508C13.5112 41.9376 8.31475 37.379 7.05219 31.1627C6.98942 30.8537 6.91185 30.3075 6.87344 29.9041C6.70507 28.1363 6.87587 26.3709 7.37889 24.6794C7.62756 23.8433 8.05796 22.8012 8.43472 22.123C8.46206 22.0738 8.51018 21.9866 8.54167 21.9292C9.29606 20.5545 10.3924 19.2268 11.6874 18.1197C11.7778 18.0423 11.878 17.9589 11.9098 17.9343C11.9417 17.9097 11.9884 17.8728 12.0136 17.8523C12.1302 17.7574 12.4451 17.5212 12.611 17.4043C14.3848 16.1533 16.3783 15.355 18.5064 15.0435C18.9146 14.9838 19.6188 14.9158 19.8292 14.9158H19.9076V13.3938V11.8717L19.643 11.8815C17.3873 11.9649 15.7281 12.3274 13.7786 13.1626L13.7239 13.1861L13.7836 12.959C14.6962 9.48934 17.7481 6.94411 21.3503 6.64841L21.6668 6.62245L21.6629 5.68235L21.6591 4.74226L21.5175 4.74019C21.4396 4.73904 21.2398 4.74692 21.0735 4.7577ZM9.81227 9.59059L9.02602 10.3769L9.81606 11.1669L10.6061 11.9568L11.3961 11.1669L12.1862 10.3769L11.3999 9.59059C10.9675 9.15808 10.6102 8.80422 10.6061 8.80422C10.6019 8.80422 10.2447 9.15808 9.81227 9.59059ZM23.023 10.8293V12.337H23.1239C23.4184 12.337 24.1628 12.4176 24.7149 12.5092C25.6858 12.6704 26.8572 13.0101 27.6663 13.3651C27.6827 13.3723 27.7766 13.413 27.875 13.4556C32.7831 15.5813 35.9902 20.511 35.9914 25.9315C35.9921 29.1608 35.3463 31.3806 33.796 33.4779C33.7551 33.5332 33.7209 33.5785 33.72 33.5785C33.719 33.5785 33.7183 33.4594 33.7183 33.3139C33.7182 32.5282 33.3387 31.6171 32.962 31.4983C32.7818 31.4415 32.7149 31.536 32.6237 31.9762C32.5914 32.1319 32.5416 32.3676 32.513 32.5001C32.3565 33.2248 32.3742 33.4797 32.6147 33.9586C32.7986 34.3247 32.8194 34.4251 32.7569 34.6443L32.7272 34.7486L32.4551 35.0172C32.1854 35.2833 32.1519 35.3149 31.8774 35.5619C31.2559 36.1212 30.3112 36.7962 29.5743 37.2075C28.7696 37.6567 28.0088 37.9943 27.1827 38.2688C26.7451 38.4142 26.5126 38.4791 25.9074 38.6247C25.8582 38.6365 25.7173 38.666 25.5944 38.6902C25.0129 38.8045 24.6267 38.858 24.0814 38.8999C23.9789 38.9077 23.7978 38.9217 23.6789 38.9309C23.1715 38.9701 21.1448 38.9619 20.934 38.9197C20.9003 38.913 20.9536 38.8905 21.1955 38.8093C23.9157 37.8966 26.1741 35.9657 27.5313 33.3921C27.6416 33.1829 27.7065 33.0478 27.8748 32.6766C29.2004 29.7534 29.0787 26.0794 27.5592 23.1441C25.6884 19.53 21.8362 17.1116 17.9437 17.1073L17.6866 17.107V18.2003V19.2936L17.8915 19.303C18.2604 19.32 18.9631 19.4125 19.2741 19.4851C19.2905 19.4889 19.381 19.5093 19.4753 19.5305C23.5338 20.4427 26.7147 24.0401 27.0925 28.1451C27.1015 28.2435 27.1117 28.3341 27.1151 28.3464C27.1186 28.3587 27.1284 28.5532 27.1371 28.7786C27.2564 31.889 25.9443 34.8179 23.5372 36.8137C23.1977 37.0952 23.0615 37.1893 23.1957 37.0497C24.3361 35.863 25.1222 34.2766 25.3107 32.781C25.3159 32.74 25.3265 32.6628 25.3343 32.6096C25.9361 28.4999 22.8907 24.5735 18.6406 23.9793C18.4835 23.9573 17.9567 23.9192 17.8096 23.9192L17.6866 23.9192V24.676V25.4329L17.981 25.4585C21.0292 25.7239 23.5397 27.9874 24.1255 30.9988C24.6758 33.828 23.384 36.7101 20.8989 38.1973C20.2499 38.5856 19.7814 38.7726 19.1772 38.8844C19.0829 38.9018 18.9756 38.9222 18.9387 38.9298C18.7681 38.9646 18.2631 39.0261 18.022 39.0415C17.9482 39.0462 17.8425 39.0538 17.7872 39.0585L17.6866 39.067V39.2183V39.3696L21.0368 39.3678C24.4458 39.366 24.4532 39.3659 25.0503 39.3092C29.0775 38.9267 32.6572 37.0126 35.0985 33.9362C35.8125 33.0365 36.4823 31.9336 36.9227 30.9326C36.9696 30.826 37.017 30.7187 37.028 30.6941C37.535 29.5658 37.9639 27.9736 38.1304 26.6023C38.278 25.386 38.2906 24.1363 38.167 22.9801C38.1304 22.638 38.1125 22.4913 38.0934 22.3764C38.0852 22.3272 38.0647 22.1998 38.0478 22.0932C37.8775 21.015 37.4532 19.5565 37.0418 18.6349C37.0309 18.6103 36.9785 18.4929 36.9254 18.3741C36.7406 17.9598 36.5948 17.6678 36.3373 17.1965C35.8991 16.3942 35.2648 15.4772 34.6358 14.7369C33.9222 13.897 33.2083 13.215 32.2873 12.4934C30.9875 11.475 29.3455 10.6044 27.7351 10.08C27.1884 9.90199 26.4544 9.70796 26.0117 9.62448C25.4116 9.51132 25.0861 9.46278 24.5137 9.40107C24.2636 9.3741 23.7411 9.34226 23.3771 9.33177L23.023 9.32159V10.8293ZM21.3014 40.3161L20.5114 41.1062L21.3014 41.8962L22.0915 42.6862L22.8814 41.8962L23.6714 41.1061L22.8813 40.3161L22.0913 39.526L21.3014 40.3161Z" fill="#CD5237"/>
<path d="M62.4226 10.7859C63.0336 11.5116 63.2246 12.5046 62.8809 13.383L54.5166 34.2747C54.211 35.115 53.409 35.9934 52.6451 36.4517L51.9194 36.8718V37.6739H58.0685V36.8718L57.7248 36.6427C57.0373 36.0698 56.8082 35.115 57.1137 34.2747L58.0303 32.0213H68.648L69.5265 34.2747C69.9084 35.115 69.6029 36.0698 68.9154 36.6427L68.5717 36.8718V37.6739H78.9602V36.8718L78.2345 36.4899C77.4325 35.9934 76.7068 35.115 76.3249 34.2747L66.8912 9.98385H62.3844V10.7477L62.4226 10.7859ZM58.9852 29.6533L63.4156 18.5009L67.7696 29.6533H58.9852Z" fill="#2B2A28"/>
<path d="M88.3011 36.6045C87.6136 36.0316 87.0789 35.0768 87.0789 34.1601V9.98385H85.513L79.1729 11.1678V11.9317L79.5167 12.2372C80.2805 12.7719 80.7771 13.765 80.7771 14.6816V34.1601C80.7771 35.0768 80.2805 36.0316 79.5167 36.6045L79.1729 36.8718V37.6739H88.683V36.8718L88.3011 36.6045Z" fill="#2B2A28"/>
<path d="M89.3607 36.8718V37.6739H102.843C108.725 37.6739 112.277 34.733 112.277 30.2644C112.277 26.9798 110.367 24.6118 106.548 23.4278C109.145 22.3966 111.093 20.105 111.093 16.9732C111.093 12.7719 107.579 9.98385 101.659 9.98385H89.3607V10.7477L89.7044 11.0533C90.4683 11.588 90.9648 12.581 90.9648 13.4976V34.1601C90.9648 35.0768 90.4683 36.0316 89.7044 36.6045L89.3607 36.8718ZM99.711 12.3518C102.728 12.3518 104.753 14.3761 104.753 17.4697C104.753 20.5634 102.728 22.6258 99.711 22.6258H97.2667V12.3518H99.711ZM100.895 24.9938C103.912 24.9938 105.937 27.018 105.937 30.1498C105.937 33.2435 103.912 35.3059 100.895 35.3059H97.2667V24.9938H100.895Z" fill="#2B2A28"/>
<path d="M122.13 17.4697C117.318 17.4697 114.454 19.3412 114.454 21.9765C114.454 23.7334 115.79 25.0701 117.471 25.0701C119.151 25.0701 120.488 23.7334 120.488 22.1293C120.488 21.1744 120.03 20.3342 119.381 19.7995C119.571 19.6467 119.953 19.5321 120.488 19.5321C121.825 19.5321 123.849 20.3724 124.613 22.8931C124.346 26.0632 113.155 25.2993 113.155 32.3269C113.155 35.7642 115.867 38.0558 119.381 38.0558C121.672 38.0558 123.735 37.0628 124.995 35.1531C125.415 37.101 126.866 38.0558 128.929 38.0558C131.793 38.0558 133.168 36.2607 133.168 35.3059C132.863 35.8406 132.29 35.8406 132.29 35.8406C131.526 35.8406 131.22 35.4587 131.22 34.4657V24.9174C131.22 18.9592 126.408 17.4697 122.13 17.4697ZM124.88 30.379C124.651 32.6324 123.276 34.1219 121.901 34.1219C120.679 34.1219 119.495 32.9379 119.495 31.0283C119.495 27.7437 122.971 27.0944 124.88 25.7194V30.379Z" fill="#2B2A28"/>
<path d="M142.57 36.6045C141.882 36.0316 141.348 35.0768 141.348 34.1601V9.98385H139.782L133.442 11.1678V11.9317L133.785 12.2372C134.549 12.7719 135.046 13.765 135.046 14.6816V34.1601C135.046 35.0768 134.549 36.0316 133.785 36.6045L133.442 36.8718V37.6739H142.952V36.8718L142.57 36.6045Z" fill="#2B2A28"/>
<path d="M152.528 17.4697C147.716 17.4697 144.851 19.3412 144.851 21.9765C144.851 23.7334 146.188 25.0701 147.869 25.0701C149.549 25.0701 150.886 23.7334 150.886 22.1293C150.886 21.1744 150.428 20.3342 149.778 19.7995C149.969 19.6467 150.351 19.5321 150.886 19.5321C152.223 19.5321 154.247 20.3724 155.011 22.8931C154.743 26.0632 143.553 25.2993 143.553 32.3269C143.553 35.7642 146.265 38.0558 149.778 38.0558C152.07 38.0558 154.132 37.0628 155.393 35.1531C155.813 37.101 157.264 38.0558 159.327 38.0558C162.191 38.0558 163.566 36.2607 163.566 35.3059C163.261 35.8406 162.688 35.8406 162.688 35.8406C161.924 35.8406 161.618 35.4587 161.618 34.4657V24.9174C161.618 18.9592 156.806 17.4697 152.528 17.4697ZM155.278 30.379C155.049 32.6324 153.674 34.1219 152.299 34.1219C151.077 34.1219 149.893 32.9379 149.893 31.0283C149.893 27.7437 153.369 27.0944 155.278 25.7194V30.379Z" fill="#2B2A28"/>
<path d="M164.03 25.7194C164.03 28.3166 165.214 30.5318 167.2 32.0595C165.1 34.0074 165.787 36.2226 170.485 37.3302C173.655 38.0176 178.467 38.2468 178.467 40.9585C178.467 42.7154 176.52 43.5938 173.655 43.5938C171.287 43.5938 169.377 42.9827 168.117 42.0661C169.072 41.6078 169.683 40.6148 169.683 39.5072C169.683 37.9031 168.384 36.6427 166.819 36.6427C165.214 36.6427 163.916 37.9031 163.916 39.5072C163.916 39.6599 163.916 39.7745 163.954 39.9273C164.68 44.3577 170.523 46 175.183 46C181.065 46 184.922 43.4029 184.922 39.5072C184.922 33.8546 177.016 34.733 172.433 34.3893C169.568 34.1983 168.308 33.549 168.423 32.8616C169.989 33.6636 171.86 34.1219 173.961 34.1219C179.881 34.1219 183.814 30.5318 183.814 25.643C183.814 21.9765 181.561 19.1884 177.933 18.0426C178.315 17.4697 178.849 16.8968 179.651 16.8968C179.881 16.8968 180.11 16.935 180.377 17.0114C180.644 17.0878 181.141 17.2405 181.676 17.2405C182.287 17.2405 182.974 17.0496 183.394 16.4003C184.196 15.1781 183.7 12.6192 180.835 12.4282C177.895 12.199 175.794 14.6816 176.176 17.6607C175.527 17.5079 174.801 17.4697 174.037 17.4697C168.193 17.4697 164.03 20.7925 164.03 25.7194ZM170.37 25.7194C170.37 22.2439 171.86 19.8759 173.922 19.8759C175.985 19.8759 177.513 22.282 177.513 25.834C177.513 29.2714 176.099 31.754 173.961 31.754C171.86 31.754 170.37 29.195 170.37 25.7194Z" fill="#2B2A28"/>
<path d="M199.233 33.6636C199.233 36.6809 200.761 38.0558 203.282 38.0558C206.146 38.0558 207.56 36.2607 207.56 35.3059C207.216 35.8406 206.643 35.8406 206.643 35.8406C205.879 35.8406 205.574 35.4587 205.574 34.4657V24.5736C205.574 20.3342 203.358 17.4697 199.272 17.4697C196.56 17.4697 194.268 18.7683 192.893 20.9071V9.98385H191.327L184.987 11.1678V11.9317L185.331 12.2372C186.095 12.7719 186.592 13.765 186.592 14.6816V34.1601C186.592 35.0768 186.095 36.0316 185.331 36.6045L184.987 36.8718V37.6739H194.498V36.8718L194.116 36.6045C193.428 36.0316 192.893 35.0768 192.893 34.1601V24.65C193.161 22.1293 194.459 20.487 196.254 20.487C198.164 20.487 199.233 22.1675 199.233 24.9556V33.6636Z" fill="#2B2A28"/>
<path d="M217.898 11.0533C218.662 11.588 219.158 12.581 219.158 13.4976V34.1601C219.158 35.0768 218.662 36.0316 217.898 36.6045L217.554 36.8718V37.6739H227.064V36.8718L226.682 36.6045C225.995 36.0316 225.46 35.0768 225.46 34.1601V25.7958H232.258C237.644 25.7958 241.272 22.664 241.272 17.7753C241.272 12.9247 237.873 9.98385 232.258 9.98385H217.554V10.7477L217.898 11.0533ZM229.47 12.3518C232.908 12.3518 234.932 14.4524 234.932 17.8134C234.932 21.289 232.793 23.4278 229.47 23.4278H225.46V12.3518H229.47Z" fill="#2B2A28"/>
<path d="M261.892 34.5039V17.8898H260.288L253.986 19.0738V19.8759L254.329 20.1432C255.017 20.6015 255.437 21.4418 255.552 22.282V31.0283C255.284 33.5108 253.986 35.0768 252.191 35.0768C250.281 35.0768 249.212 33.3963 249.212 30.57V17.8898H247.646L241.306 19.0738V19.8759L241.649 20.1432C242.413 20.6779 242.91 21.671 242.91 22.5876V30.9901C242.91 35.2295 245.125 38.0558 249.173 38.0558C251.962 38.0558 254.253 36.7573 255.59 34.6184C255.857 36.9482 257.347 38.0558 259.6 38.0558C262.465 38.0558 263.878 36.2607 263.878 35.3059C263.534 35.8406 262.961 35.8406 262.961 35.8406C262.197 35.8406 261.892 35.4587 261.892 34.5039Z" fill="#2B2A28"/>
<path d="M274.903 38.0558C282.16 38.0558 285.827 33.9692 285.827 27.8583C285.827 21.6328 282.046 17.4697 276.469 17.4697C274.254 17.4697 272.688 18.1572 271.581 19.2648V9.98385H270.015L263.675 11.1678V11.9317L264.018 12.2372C264.782 12.7719 265.279 13.765 265.279 14.6816V37.6739H266.845L267.876 37.2538C268.22 37.101 268.64 37.0246 269.06 37.0246C269.595 37.0246 270.129 37.1392 270.664 37.3683C272.039 37.9031 273.528 38.0558 274.903 38.0558ZM271.581 31.2192V26.9416C271.772 22.6258 273.376 19.8759 275.667 19.8759C278.112 19.8759 279.525 23.0459 279.525 27.6673C279.525 32.5942 277.921 35.6879 275.4 35.6879C273.032 35.6879 271.695 32.8997 271.581 31.2192Z" fill="#2B2A28"/>
<path d="M295.342 36.6045C294.655 36.0316 294.12 35.0768 294.12 34.1601V9.98385H292.554L286.214 11.1678V11.9317L286.558 12.2372C287.322 12.7719 287.818 13.765 287.818 14.6816V34.1601C287.818 35.0768 287.322 36.0316 286.558 36.6045L286.214 36.8718V37.6739H295.724V36.8718L295.342 36.6045Z" fill="#2B2A28"/>
<path d="M297.433 13.2303C297.433 15.2163 299.075 16.8586 301.062 16.8586C303.086 16.8586 304.728 15.2163 304.728 13.2303C304.728 11.2442 303.086 9.56372 301.062 9.56372C299.075 9.56372 297.433 11.2442 297.433 13.2303ZM305.454 36.6045C304.766 36.0316 304.232 35.0768 304.232 34.1601V17.8898H302.666L296.326 19.0738V19.8759L296.669 20.1432C297.433 20.6779 297.93 21.671 297.93 22.5876V34.1601C297.93 35.0768 297.433 36.0316 296.669 36.6045L296.326 36.8718V37.6739H305.836V36.8718L305.454 36.6045Z" fill="#2B2A28"/>
<path d="M317.089 17.4697C310.711 17.4697 306.433 22.1293 306.433 28.0874C306.433 34.4275 311.322 38.0558 316.516 38.0558C322.093 38.0558 324.613 33.9692 325.645 29.7679H324.842C324.461 31.1047 322.207 34.1219 318.541 34.1219C315.027 34.1219 312.773 31.2192 312.773 27.018C312.773 22.7786 315.065 19.8759 317.777 19.8759C318.502 19.8759 319.037 20.0668 319.228 20.1432C318.464 20.7543 317.968 21.7092 317.968 22.8168C317.968 24.7264 319.495 26.2159 321.443 26.2159C323.353 26.2159 324.881 24.7264 324.881 22.7022C324.881 19.7995 321.558 17.4697 317.089 17.4697Z" fill="#2B2A28"/>
<path d="M335.214 17.4697C330.402 17.4697 327.537 19.3412 327.537 21.9765C327.537 23.7334 328.874 25.0701 330.554 25.0701C332.235 25.0701 333.572 23.7334 333.572 22.1293C333.572 21.1744 333.113 20.3342 332.464 19.7995C332.655 19.6467 333.037 19.5321 333.572 19.5321C334.908 19.5321 336.933 20.3724 337.697 22.8931C337.429 26.0632 326.239 25.2993 326.239 32.3269C326.239 35.7642 328.95 38.0558 332.464 38.0558C334.756 38.0558 336.818 37.0628 338.078 35.1531C338.499 37.101 339.95 38.0558 342.012 38.0558C344.877 38.0558 346.252 36.2607 346.252 35.3059C345.946 35.8406 345.373 35.8406 345.373 35.8406C344.609 35.8406 344.304 35.4587 344.304 34.4657V24.9174C344.304 18.9592 339.492 17.4697 335.214 17.4697ZM337.964 30.379C337.735 32.6324 336.36 34.1219 334.985 34.1219C333.763 34.1219 332.579 32.9379 332.579 31.0283C332.579 27.7437 336.054 27.0944 337.964 25.7194V30.379Z" fill="#2B2A28"/>
<path d="M347.834 33.6636C347.834 36.6809 349.324 38.0558 351.845 38.0558C354.747 38.0558 356.122 36.2607 356.122 35.3059C355.817 35.8406 355.206 35.8406 355.206 35.8406C354.48 35.8406 354.136 35.4587 354.136 34.4657V20.2578H356.39V17.8898H354.136V14.3379H351.768C351.768 16.6677 350.279 17.8898 347.834 17.8898H346.039V20.2578H347.834V33.6636Z" fill="#2B2A28"/>
<path d="M358.117 13.2303C358.117 15.2163 359.759 16.8586 361.745 16.8586C363.77 16.8586 365.412 15.2163 365.412 13.2303C365.412 11.2442 363.77 9.56372 361.745 9.56372C359.759 9.56372 358.117 11.2442 358.117 13.2303ZM366.138 36.6045C365.45 36.0316 364.915 35.0768 364.915 34.1601V17.8898H363.35L357.009 19.0738V19.8759L357.353 20.1432C358.117 20.6779 358.614 21.671 358.614 22.5876V34.1601C358.614 35.0768 358.117 36.0316 357.353 36.6045L357.009 36.8718V37.6739H366.52V36.8718L366.138 36.6045Z" fill="#2B2A28"/>
<path d="M367.155 27.7819C367.155 33.8928 371.318 38.0558 377.391 38.0558C383.617 38.0558 387.742 33.7782 387.742 27.6291C387.742 21.5564 383.731 17.4697 377.582 17.4697C371.357 17.4697 367.155 21.5946 367.155 27.7819ZM373.495 27.8583C373.495 23.0459 375.1 19.8759 377.429 19.8759C379.797 19.8759 381.401 22.9695 381.401 27.7819C381.401 32.5178 379.797 35.6879 377.391 35.6879C375.061 35.6879 373.495 32.5942 373.495 27.8583Z" fill="#2B2A28"/>
<path d="M402.586 33.6636C402.586 36.6809 404.114 38.0558 406.634 38.0558C409.499 38.0558 410.912 36.2607 410.912 35.3059C410.568 35.8406 409.995 35.8406 409.995 35.8406C409.231 35.8406 408.926 35.4587 408.926 34.4657V24.5736C408.926 20.3342 406.711 17.4697 402.624 17.4697C399.912 17.4697 397.621 18.7683 396.246 20.9071V17.8898H394.68L388.34 19.0738V19.8759L388.684 20.1432C389.447 20.6779 389.944 21.671 389.944 22.5876V34.1601C389.944 35.0768 389.447 36.0316 388.684 36.6045L388.34 36.8718V37.6739H397.85V36.8718L397.468 36.6045C396.78 36.0316 396.246 35.0768 396.246 34.1601V24.65C396.513 22.1293 397.812 20.487 399.607 20.487C401.516 20.487 402.586 22.1675 402.586 24.9556V33.6636Z" fill="#2B2A28"/>
<path d="M422.087 33.8546C422.087 35.0768 421.056 35.9552 418.764 35.9552C417.313 35.9552 416.625 35.6115 416.243 35.3441C416.892 34.7712 417.351 33.9692 417.351 33.0143C417.351 31.3338 415.976 29.9589 414.334 29.9589C412.615 29.9589 411.278 31.3338 411.278 33.0907C411.278 35.6879 414.372 38.0558 419.872 38.0558C425.066 38.0558 428.159 35.917 428.159 32.3269C428.159 25.9104 418.267 24.9174 418.267 21.3654C418.267 20.2578 419.26 19.3412 421.017 19.3412C422.125 19.3412 423.156 19.6849 423.462 20.0287C422.851 20.487 422.469 21.289 422.469 22.1293C422.469 23.6188 423.653 24.8028 425.18 24.8028C426.67 24.8028 427.854 23.6188 427.854 22.0529C427.854 19.7995 425.333 17.4697 420.33 17.4697C415.441 17.4697 412.233 19.6467 412.233 23.0841C412.233 28.9659 422.087 30.188 422.087 33.8546Z" fill="#2B2A28"/>
</svg>
